HIERARCHY
ROOT joint_Root
{
	OFFSET 0.0 0.0 0.0
	CHANNELS 6 Xposition Yposition Zposition Zrotation Xrotation Yrotation 
	JOINT Hips
	{
		OFFSET 4.5925 91.4895 -427.239
		CHANNELS 6 Xposition Yposition Zposition Zrotation Xrotation Yrotation 
		JOINT Spine
		{
			OFFSET 15.7357 0.0 0.0
			CHANNELS 6 Xposition Yposition Zposition Zrotation Xrotation Yrotation 
			JOINT Chest
			{
				OFFSET 8.98455 -0.406207 0.0
				CHANNELS 6 Xposition Yposition Zposition Zrotation Xrotation Yrotation 
				JOINT Neck
				{
					OFFSET 16.3773 0.0 0.0
					CHANNELS 6 Xposition Yposition Zposition Zrotation Xrotation Yrotation 
					JOINT Head
					{
						OFFSET 6.45672 0.0 0.0
						CHANNELS 6 Xposition Yposition Zposition Zrotation Xrotation Yrotation 
						End Site
						{
							OFFSET 0.0 0.0 0.0
						}
					}
				}
				JOINT Shoulder_L
				{
					OFFSET 12.9942 -0.242716 4.98039
					CHANNELS 6 Xposition Yposition Zposition Zrotation Xrotation Yrotation 
					JOINT UpperArm_L
					{
						OFFSET 5.34809 0.0 0.0
						CHANNELS 6 Xposition Yposition Zposition Zrotation Xrotation Yrotation 
						JOINT LowerArm_L
						{
							OFFSET 24.3286 1.87007e-05 0.0
							CHANNELS 6 Xposition Yposition Zposition Zrotation Xrotation Yrotation 
							JOINT Hand_L
							{
								OFFSET 22.2916 0.0 0.0
								CHANNELS 6 Xposition Yposition Zposition Zrotation Xrotation Yrotation 
								End Site
								{
									OFFSET 0.0 0.0 0.0
								}
							}
						}
					}
				}
				JOINT Shoulder_R
				{
					OFFSET 12.9945 -0.242716 -4.98039
					CHANNELS 6 Xposition Yposition Zposition Zrotation Xrotation Yrotation 
					JOINT UpperArm_R
					{
						OFFSET -5.34813 0.0 0.0
						CHANNELS 6 Xposition Yposition Zposition Zrotation Xrotation Yrotation 
						JOINT LowerArm_R
						{
							OFFSET -24.3289 0.000322201 0.0
							CHANNELS 6 Xposition Yposition Zposition Zrotation Xrotation Yrotation 
							JOINT Hand_R
							{
								OFFSET -22.2915 -0.000108084 0.0
								CHANNELS 6 Xposition Yposition Zposition Zrotation Xrotation Yrotation 
								End Site
								{
									OFFSET 0.0 0.0 0.0
								}
							}
						}
					}
				}
			}
		}
		JOINT UpperLeg_L
		{
			OFFSET -2.19248 -6.46944 0.0
			CHANNELS 6 Xposition Yposition Zposition Zrotation Xrotation Yrotation 
			JOINT LowerLeg_L
			{
				OFFSET 39.0811 0.0 -1.23785e-05
				CHANNELS 6 Xposition Yposition Zposition Zrotation Xrotation Yrotation 
				JOINT Foot_L
				{
					OFFSET 40.9854 0.0 -1.26872e-05
					CHANNELS 6 Xposition Yposition Zposition Zrotation Xrotation Yrotation 
					JOINT Toes_L
					{
						OFFSET 11.7543 0.0 0.0
						CHANNELS 6 Xposition Yposition Zposition Zrotation Xrotation Yrotation 
						End Site
						{
							OFFSET 0.0 0.0 0.0
						}
					}
				}
			}
		}
		JOINT UpperLeg_R
		{
			OFFSET -2.19251 6.46944 0.0
			CHANNELS 6 Xposition Yposition Zposition Zrotation Xrotation Yrotation 
			JOINT LowerLeg_R
			{
				OFFSET -39.0811 -0.00228153 -0.0401928
				CHANNELS 6 Xposition Yposition Zposition Zrotation Xrotation Yrotation 
				JOINT Foot_R
				{
					OFFSET -40.9854 0.0 0.0
					CHANNELS 6 Xposition Yposition Zposition Zrotation Xrotation Yrotation 
					JOINT Toes_R
					{
						OFFSET -11.7543 0.0 0.0
						CHANNELS 6 Xposition Yposition Zposition Zrotation Xrotation Yrotation 
						End Site
						{
							OFFSET 0.0 0.0 0.0
						}
					}
				}
			}
		}
	}
}
MOTION
Frames:	7
Frame Time:	0.0333333
0.000000 0.000000 0.000000 0.000000 0.000000 -0.000000 141.570000 89.318900 128.666000 99.228200 -25.755000 4.367010 15.735700 0.000005 -0.000001 57.733300 82.786200 -56.913000 8.984550 -0.406207 -0.000000 4.522690 -7.712390 1.945730 16.377300 -0.000001 -0.000001 0.580765 -17.480500 5.597690 6.456720 -0.000001 -0.000000 -0.256710 -20.215700 12.477400 12.994200 -0.242716 4.980390 -89.197800 -2.668840 -73.263800 5.348090 -0.000007 -0.000001 -49.243700 39.615200 -47.151500 24.328600 0.000019 0.000005 2.504110 -0.952949 -110.822000 22.291600 -0.000001 0.000005 16.421900 5.489330 -6.112980 12.994500 -0.242716 -4.980390 89.243200 3.497320 -77.780200 -5.348130 -0.000001 -0.000004 -72.687200 28.789300 28.148300 -24.328900 0.000322 -0.000009 -20.980300 -4.776710 -77.747100 -22.291500 -0.000108 -0.000004 20.098600 5.618700 -12.516300 -2.192480 -6.469440 -0.000000 -174.905000 -19.175700 5.090530 39.081100 -0.000007 -0.000012 -0.122931 0.229413 28.184900 40.985400 -0.000006 -0.000013 -8.557840 9.668120 -63.456000 11.754300 -0.000000 0.000003 -0.045298 -0.280589 -28.119300 -2.192510 6.469440 -0.000001 -169.819000 26.099900 146.108000 -39.081100 -0.002282 -0.040193 -0.014599 0.026072 34.459100 -40.985400 0.000008 0.000006 5.846370 -6.719520 -61.266400 -11.754300 -0.000006 -0.000006 -0.027660 -0.206530 -25.028700
0.000000 0.000000 0.000000 0.000000 0.000000 -0.000000 139.234000 87.752500 132.550000 100.496000 -28.041200 5.358090 15.735700 0.000005 -0.000001 58.133900 83.172900 -57.382700 8.984550 -0.406207 -0.000000 3.903930 -7.223780 1.748800 16.377300 -0.000001 -0.000001 0.747330 -16.926100 4.560300 6.456720 -0.000001 -0.000000 0.077345 -20.527100 11.883000 12.994200 -0.242716 4.980390 -89.928300 -0.233562 -72.901000 5.348090 -0.000007 -0.000001 -47.758500 44.083600 -42.108900 24.328600 0.000019 0.000005 2.767650 -0.487201 -100.007000 22.291600 -0.000001 0.000005 16.562200 5.471070 -5.408050 12.994500 -0.242716 -4.980390 88.452100 7.054760 -77.594400 -5.348130 -0.000001 -0.000004 -71.065900 30.523900 21.955300 -24.328900 0.000322 -0.000009 -24.250500 -5.567160 -77.845700 -22.291500 -0.000108 -0.000004 23.721500 5.632410 -13.508600 -2.192480 -6.469440 -0.000000 -174.883000 -18.291600 6.668330 39.081100 -0.000007 -0.000012 -0.147690 0.232610 32.412800 40.985400 -0.000006 -0.000013 -10.350400 8.856390 -64.509000 11.754300 -0.000000 0.000003 -0.084058 -0.403158 -33.332700 -2.192510 6.469440 -0.000001 -165.277000 33.152900 144.258000 -39.081100 -0.002282 -0.040193 -0.037904 0.062954 33.201900 -40.985400 0.000008 0.000006 11.431700 -9.183040 -59.889200 -11.754300 -0.000006 -0.000006 -0.022800 -0.182331 -24.028100
0.000000 0.000000 0.000000 0.000000 0.000000 -0.000000 136.136000 86.172100 136.802000 100.953000 -29.947700 6.097070 15.735700 0.000005 -0.000001 57.579900 83.804600 -56.530000 8.984550 -0.406207 -0.000000 2.772730 -6.682800 2.261330 16.377300 -0.000001 -0.000001 1.657110 -16.563900 3.844880 6.456720 -0.000001 -0.000000 0.400183 -20.535800 9.880380 12.994200 -0.242716 4.980390 -90.582900 1.780120 -71.868100 5.348090 -0.000007 -0.000001 -46.883800 49.569100 -36.641600 24.328600 0.000019 0.000005 5.573020 0.597491 -83.970100 22.291600 -0.000001 0.000005 13.369000 5.467790 -5.295450 12.994500 -0.242716 -4.980390 87.412700 10.461600 -76.027200 -5.348130 -0.000001 -0.000004 -67.684700 34.434900 13.136600 -24.328900 0.000322 -0.000009 -27.200300 -5.767900 -78.934600 -22.291500 -0.000108 -0.000004 25.556600 5.634620 -13.686800 -2.192480 -6.469440 -0.000000 -173.443000 -18.003600 7.030650 39.081100 -0.000007 -0.000012 -0.112363 0.138473 39.057900 40.985400 -0.000006 -0.000013 -11.954400 9.116660 -61.843700 11.754300 -0.000000 0.000003 -0.194746 -0.636316 -43.811500 -2.192510 6.469440 -0.000001 -163.524000 34.785400 146.244000 -39.081100 -0.002282 -0.040193 -0.145089 0.209935 35.252200 -40.985400 0.000008 0.000006 27.638700 -11.645300 -64.542300 -11.754300 -0.000006 -0.000006 -0.014853 -0.136891 -22.158000
0.000000 0.000000 0.000000 0.000000 0.000000 -0.000000 132.765000 85.055600 140.778000 101.179000 -33.597400 7.751270 15.735700 0.000005 -0.000001 63.478300 84.311000 -61.940900 8.984550 -0.406207 -0.000000 2.494940 -5.147360 3.185510 16.377300 -0.000001 -0.000001 2.323160 -15.911100 3.379210 6.456720 -0.000001 -0.000000 0.504999 -19.773900 6.983610 12.994200 -0.242716 4.980390 -91.059800 3.099030 -71.110900 5.348090 -0.000007 -0.000001 -47.627200 55.124900 -30.502100 24.328600 0.000019 0.000005 10.143000 5.014780 -64.004500 22.291600 -0.000001 0.000005 12.808000 5.509910 -6.933910 12.994500 -0.242716 -4.980390 86.657300 12.765800 -75.193400 -5.348130 -0.000001 -0.000004 -63.366100 37.879400 2.176820 -24.328900 0.000322 -0.000009 -26.789800 -3.915480 -82.297900 -22.291500 -0.000108 -0.000004 26.603200 5.634490 -13.680600 -2.192480 -6.469440 -0.000000 -172.421000 -18.296800 3.932700 39.081100 -0.000007 -0.000012 0.078510 -0.064613 50.544400 40.985400 -0.000006 -0.000013 -8.250180 6.819590 -51.988100 11.754300 -0.000000 0.000003 -0.304612 -0.795786 -51.669400 -2.192510 6.469440 -0.000001 -167.171000 27.252600 149.855000 -39.081100 -0.002282 -0.040193 -0.173930 0.192086 42.692100 -40.985400 0.000008 0.000006 24.068600 -17.621700 -69.260700 -11.754300 -0.000006 -0.000006 -0.008425 -0.091469 -20.298200
0.000000 0.000000 0.000000 0.000000 0.000000 -0.000000 129.215000 84.338000 144.017000 100.485000 -38.921300 10.586600 15.735700 0.000005 -0.000001 73.523800 83.710900 -71.413200 8.984550 -0.406207 -0.000000 4.373040 -3.623970 4.356120 16.377300 -0.000001 -0.000001 2.545340 -14.320300 4.293850 6.456720 -0.000001 -0.000000 0.198818 -17.599300 4.001970 12.994200 -0.242716 4.980390 -91.247300 3.665350 -71.192500 5.348090 -0.000007 -0.000001 -55.004500 56.186600 -15.950100 24.328600 0.000019 0.000005 14.242400 11.426800 -52.032600 22.291600 -0.000001 0.000005 11.614700 5.536800 -8.106650 12.994500 -0.242716 -4.980390 86.997700 12.938500 -76.817000 -5.348130 -0.000001 -0.000004 -59.028500 40.341400 -11.857100 -24.328900 0.000322 -0.000009 -24.761200 -1.113710 -87.592900 -22.291500 -0.000108 -0.000004 26.348400 5.631550 -13.451800 -2.192480 -6.469440 -0.000000 -171.639000 -16.856500 -0.750875 39.081100 -0.000007 -0.000012 0.177689 -0.089244 63.330700 40.985400 -0.000006 -0.000013 -2.346440 2.488050 -38.804200 11.754300 -0.000000 0.000003 -0.056582 -0.320513 -29.801300 -2.192510 6.469440 -0.000001 -168.274000 22.255800 156.778000 -39.081100 -0.002282 -0.040193 -0.097463 0.099882 45.241300 -40.985400 0.000008 0.000006 23.034500 -19.735300 -73.277300 -11.754300 -0.000006 -0.000006 -0.008332 -0.090718 -20.267500
0.000000 0.000000 0.000000 0.000000 0.000000 -0.000000 126.242000 83.856900 146.331000 100.528000 -42.922200 11.752200 15.735700 0.000005 -0.000001 78.671500 83.394600 -76.646800 8.984550 -0.406207 -0.000000 5.241530 -2.634000 4.165830 16.377300 -0.000001 -0.000001 2.898470 -13.490200 5.489760 6.456720 -0.000001 -0.000000 0.652032 -16.361600 5.025100 12.994200 -0.242716 4.980390 -91.337300 3.835080 -70.759200 5.348090 -0.000007 -0.000001 -58.962700 56.952000 -0.718726 24.328600 0.000019 0.000005 14.429900 11.342600 -52.613600 22.291600 -0.000001 0.000005 9.949260 5.563450 -9.361340 12.994500 -0.242716 -4.980390 87.442200 11.808600 -77.686300 -5.348130 -0.000001 -0.000004 -54.374900 41.401800 -26.986100 -24.328900 0.000322 -0.000009 -18.784800 1.417020 -94.168800 -22.291500 -0.000108 -0.000004 26.093200 5.632220 -13.501700 -2.192480 -6.469440 -0.000000 -173.687000 -12.729900 -9.147420 39.081100 -0.000007 -0.000012 0.005972 -0.001568 75.228500 40.985400 -0.000006 -0.000013 3.200520 -4.129620 -34.785700 11.754300 -0.000000 0.000003 -0.008960 -0.095704 -20.475000 -2.192510 6.469440 -0.000001 -168.781000 22.103000 161.151000 -39.081100 -0.002282 -0.040193 0.005572 -0.002219 46.171000 -40.985400 0.000008 0.000006 22.815100 -17.738800 -77.662800 -11.754300 -0.000006 -0.000006 -0.007821 -0.086564 -20.097900
0.000000 0.000000 0.000000 0.000000 0.000000 -0.000000 123.374000 84.378500 148.529000 102.126000 -48.133500 13.751200 15.735700 0.000005 -0.000001 89.435300 83.151200 -88.032800 8.984550 -0.406207 -0.000000 5.934320 -0.157041 2.809830 16.377300 -0.000001 -0.000001 3.799880 -12.835200 6.470750 6.456720 -0.000001 -0.000000 1.244780 -17.115100 7.576090 12.994200 -0.242716 4.980390 -90.879200 2.304020 -69.101200 5.348090 -0.000007 -0.000001 -61.649400 59.525200 10.625700 24.328600 0.000019 0.000005 10.382800 7.223670 -55.540300 22.291600 -0.000001 0.000005 8.684330 5.575310 -9.964160 12.994500 -0.242716 -4.980390 87.991800 9.886530 -78.457700 -5.348130 -0.000001 -0.000004 -52.368400 39.443600 -38.072300 -24.328900 0.000322 -0.000009 -13.765300 2.870000 -101.554000 -22.291500 -0.000108 -0.000004 24.986500 5.625970 -13.040200 -2.192480 -6.469440 -0.000000 -176.246000 -9.403110 -15.778500 39.081100 -0.000007 -0.000012 -0.202549 0.026651 82.506400 40.985400 -0.000006 -0.000013 8.764370 -9.296530 -40.543400 11.754300 -0.000000 0.000003 -0.009103 -0.096822 -20.520700 -2.192510 6.469440 -0.000001 -170.942000 22.147200 166.976000 -39.081100 -0.002282 -0.040193 0.102553 -0.103132 43.911300 -40.985400 0.000008 0.000006 23.143700 -13.130600 -80.444200 -11.754300 -0.000006 -0.000006 -0.007123 -0.080713 -19.859000
